<mxfile host="app.diagrams.net" agent="Mozilla/5.0 (Windows NT 10.0; Win64; x64) AppleWebKit/537.36 (KHTML, like Gecko) Chrome/134.0.0.0 Safari/537.36 Edg/134.0.0.0" version="26.2.9">
  <diagram name="Page-1" id="ZeaRLKcDX9Xmy7m632yH">
    <mxGraphModel dx="780" dy="506" grid="1" gridSize="10" guides="1" tooltips="1" connect="1" arrows="1" fold="1" page="1" pageScale="1" pageWidth="850" pageHeight="1100" math="0" shadow="0">
      <root>
        <mxCell id="0" />
        <mxCell id="1" parent="0" />
        <mxCell id="JYOds4GW_X546JAjG_i9-1" value="AppComponent" style="ellipse;whiteSpace=wrap;html=1;" vertex="1" parent="1">
          <mxGeometry x="260" y="110" width="120" height="80" as="geometry" />
        </mxCell>
        <mxCell id="JYOds4GW_X546JAjG_i9-2" value="Log Workout&lt;div&gt;Component&lt;/div&gt;" style="ellipse;whiteSpace=wrap;html=1;" vertex="1" parent="1">
          <mxGeometry x="40" y="210" width="120" height="80" as="geometry" />
        </mxCell>
        <mxCell id="JYOds4GW_X546JAjG_i9-3" value="Track Progress&lt;div&gt;Component&lt;/div&gt;" style="ellipse;whiteSpace=wrap;html=1;" vertex="1" parent="1">
          <mxGeometry x="260" y="210" width="120" height="80" as="geometry" />
        </mxCell>
        <mxCell id="JYOds4GW_X546JAjG_i9-4" value="Exercise Demos&lt;div&gt;Component&lt;/div&gt;" style="ellipse;whiteSpace=wrap;html=1;" vertex="1" parent="1">
          <mxGeometry x="480" y="210" width="120" height="80" as="geometry" />
        </mxCell>
        <mxCell id="JYOds4GW_X546JAjG_i9-5" value="Log Exercise&lt;div&gt;Component&lt;/div&gt;" style="rounded=0;whiteSpace=wrap;html=1;" vertex="1" parent="1">
          <mxGeometry y="300" width="90" height="40" as="geometry" />
        </mxCell>
        <mxCell id="JYOds4GW_X546JAjG_i9-6" value="Custom Exercise&lt;div&gt;Component&lt;/div&gt;" style="rounded=0;whiteSpace=wrap;html=1;" vertex="1" parent="1">
          <mxGeometry x="110" y="300" width="90" height="40" as="geometry" />
        </mxCell>
        <mxCell id="JYOds4GW_X546JAjG_i9-8" value="Exercise Selection Component" style="rounded=0;whiteSpace=wrap;html=1;" vertex="1" parent="1">
          <mxGeometry x="220" y="300" width="90" height="40" as="geometry" />
        </mxCell>
        <mxCell id="JYOds4GW_X546JAjG_i9-10" value="Graph&lt;div&gt;Component&lt;/div&gt;" style="rounded=0;whiteSpace=wrap;html=1;" vertex="1" parent="1">
          <mxGeometry x="330" y="300" width="90" height="40" as="geometry" />
        </mxCell>
        <mxCell id="JYOds4GW_X546JAjG_i9-11" value="Video&lt;div&gt;Component&lt;/div&gt;" style="rounded=0;whiteSpace=wrap;html=1;" vertex="1" parent="1">
          <mxGeometry x="495" y="300" width="90" height="40" as="geometry" />
        </mxCell>
        <mxCell id="JYOds4GW_X546JAjG_i9-13" value="" style="endArrow=none;html=1;rounded=0;entryX=0;entryY=0.5;entryDx=0;entryDy=0;exitX=0.5;exitY=0;exitDx=0;exitDy=0;" edge="1" parent="1" source="JYOds4GW_X546JAjG_i9-2" target="JYOds4GW_X546JAjG_i9-1">
          <mxGeometry width="50" height="50" relative="1" as="geometry">
            <mxPoint x="170" y="190" as="sourcePoint" />
            <mxPoint x="220" y="140" as="targetPoint" />
          </mxGeometry>
        </mxCell>
        <mxCell id="JYOds4GW_X546JAjG_i9-14" value="" style="endArrow=none;html=1;rounded=0;entryX=0.5;entryY=1;entryDx=0;entryDy=0;exitX=0.5;exitY=0;exitDx=0;exitDy=0;" edge="1" parent="1" source="JYOds4GW_X546JAjG_i9-3" target="JYOds4GW_X546JAjG_i9-1">
          <mxGeometry width="50" height="50" relative="1" as="geometry">
            <mxPoint x="220" y="250" as="sourcePoint" />
            <mxPoint x="270" y="200" as="targetPoint" />
          </mxGeometry>
        </mxCell>
        <mxCell id="JYOds4GW_X546JAjG_i9-15" value="" style="endArrow=none;html=1;rounded=0;exitX=1;exitY=0.5;exitDx=0;exitDy=0;entryX=0.5;entryY=0;entryDx=0;entryDy=0;" edge="1" parent="1" source="JYOds4GW_X546JAjG_i9-1" target="JYOds4GW_X546JAjG_i9-4">
          <mxGeometry width="50" height="50" relative="1" as="geometry">
            <mxPoint x="440" y="175" as="sourcePoint" />
            <mxPoint x="490" y="125" as="targetPoint" />
          </mxGeometry>
        </mxCell>
        <mxCell id="JYOds4GW_X546JAjG_i9-16" value="" style="endArrow=none;html=1;rounded=0;entryX=0.5;entryY=1;entryDx=0;entryDy=0;exitX=0.5;exitY=0;exitDx=0;exitDy=0;" edge="1" parent="1" source="JYOds4GW_X546JAjG_i9-5" target="JYOds4GW_X546JAjG_i9-2">
          <mxGeometry width="50" height="50" relative="1" as="geometry">
            <mxPoint y="440" as="sourcePoint" />
            <mxPoint x="50" y="390" as="targetPoint" />
          </mxGeometry>
        </mxCell>
        <mxCell id="JYOds4GW_X546JAjG_i9-17" value="" style="endArrow=none;html=1;rounded=0;entryX=0.5;entryY=1;entryDx=0;entryDy=0;exitX=0.5;exitY=0;exitDx=0;exitDy=0;" edge="1" parent="1" source="JYOds4GW_X546JAjG_i9-6" target="JYOds4GW_X546JAjG_i9-2">
          <mxGeometry width="50" height="50" relative="1" as="geometry">
            <mxPoint x="30" y="430" as="sourcePoint" />
            <mxPoint x="80" y="380" as="targetPoint" />
          </mxGeometry>
        </mxCell>
        <mxCell id="JYOds4GW_X546JAjG_i9-18" value="" style="endArrow=none;html=1;rounded=0;entryX=0.5;entryY=1;entryDx=0;entryDy=0;exitX=0.5;exitY=0;exitDx=0;exitDy=0;" edge="1" parent="1" source="JYOds4GW_X546JAjG_i9-8" target="JYOds4GW_X546JAjG_i9-3">
          <mxGeometry width="50" height="50" relative="1" as="geometry">
            <mxPoint x="190" y="410" as="sourcePoint" />
            <mxPoint x="240" y="360" as="targetPoint" />
          </mxGeometry>
        </mxCell>
        <mxCell id="JYOds4GW_X546JAjG_i9-19" value="" style="endArrow=none;html=1;rounded=0;entryX=0.5;entryY=1;entryDx=0;entryDy=0;exitX=0.5;exitY=0;exitDx=0;exitDy=0;" edge="1" parent="1" source="JYOds4GW_X546JAjG_i9-10" target="JYOds4GW_X546JAjG_i9-3">
          <mxGeometry width="50" height="50" relative="1" as="geometry">
            <mxPoint x="320" y="400" as="sourcePoint" />
            <mxPoint x="370" y="350" as="targetPoint" />
          </mxGeometry>
        </mxCell>
        <mxCell id="JYOds4GW_X546JAjG_i9-20" value="" style="endArrow=none;html=1;rounded=0;entryX=0.5;entryY=1;entryDx=0;entryDy=0;exitX=0.5;exitY=0;exitDx=0;exitDy=0;" edge="1" parent="1" source="JYOds4GW_X546JAjG_i9-11" target="JYOds4GW_X546JAjG_i9-4">
          <mxGeometry width="50" height="50" relative="1" as="geometry">
            <mxPoint x="450" y="420" as="sourcePoint" />
            <mxPoint x="500" y="370" as="targetPoint" />
          </mxGeometry>
        </mxCell>
        <mxCell id="JYOds4GW_X546JAjG_i9-21" value="Login Component" style="ellipse;whiteSpace=wrap;html=1;" vertex="1" parent="1">
          <mxGeometry x="340" y="10" width="120" height="80" as="geometry" />
        </mxCell>
        <mxCell id="JYOds4GW_X546JAjG_i9-22" value="Create Account&lt;div&gt;Component&lt;/div&gt;" style="ellipse;whiteSpace=wrap;html=1;" vertex="1" parent="1">
          <mxGeometry x="180" y="10" width="120" height="80" as="geometry" />
        </mxCell>
        <mxCell id="JYOds4GW_X546JAjG_i9-23" value="" style="endArrow=none;html=1;rounded=0;entryX=0.5;entryY=0;entryDx=0;entryDy=0;exitX=0.5;exitY=1;exitDx=0;exitDy=0;" edge="1" parent="1" source="JYOds4GW_X546JAjG_i9-22" target="JYOds4GW_X546JAjG_i9-1">
          <mxGeometry width="50" height="50" relative="1" as="geometry">
            <mxPoint x="130" y="170" as="sourcePoint" />
            <mxPoint x="180" y="120" as="targetPoint" />
          </mxGeometry>
        </mxCell>
        <mxCell id="JYOds4GW_X546JAjG_i9-24" value="" style="endArrow=none;html=1;rounded=0;entryX=0.5;entryY=1;entryDx=0;entryDy=0;exitX=0.5;exitY=0;exitDx=0;exitDy=0;" edge="1" parent="1" source="JYOds4GW_X546JAjG_i9-1" target="JYOds4GW_X546JAjG_i9-21">
          <mxGeometry width="50" height="50" relative="1" as="geometry">
            <mxPoint x="310" y="80" as="sourcePoint" />
            <mxPoint x="190" y="120" as="targetPoint" />
          </mxGeometry>
        </mxCell>
        <mxCell id="JYOds4GW_X546JAjG_i9-25" value="Profile&lt;div&gt;Component&lt;/div&gt;" style="ellipse;whiteSpace=wrap;html=1;" vertex="1" parent="1">
          <mxGeometry x="520" width="120" height="80" as="geometry" />
        </mxCell>
        <mxCell id="JYOds4GW_X546JAjG_i9-27" value="Account Settings&lt;div&gt;Component&lt;/div&gt;" style="rounded=0;whiteSpace=wrap;html=1;" vertex="1" parent="1">
          <mxGeometry x="480" y="100" width="90" height="40" as="geometry" />
        </mxCell>
        <mxCell id="JYOds4GW_X546JAjG_i9-28" value="Workout History&lt;div&gt;Component&lt;/div&gt;" style="rounded=0;whiteSpace=wrap;html=1;" vertex="1" parent="1">
          <mxGeometry x="590" y="100" width="90" height="40" as="geometry" />
        </mxCell>
        <mxCell id="JYOds4GW_X546JAjG_i9-29" value="" style="endArrow=none;html=1;rounded=0;entryX=0.5;entryY=1;entryDx=0;entryDy=0;exitX=0.5;exitY=0;exitDx=0;exitDy=0;" edge="1" parent="1" source="JYOds4GW_X546JAjG_i9-27" target="JYOds4GW_X546JAjG_i9-25">
          <mxGeometry width="50" height="50" relative="1" as="geometry">
            <mxPoint x="420" y="140" as="sourcePoint" />
            <mxPoint x="470" y="90" as="targetPoint" />
          </mxGeometry>
        </mxCell>
        <mxCell id="JYOds4GW_X546JAjG_i9-30" value="" style="endArrow=none;html=1;rounded=0;exitX=0.5;exitY=1;exitDx=0;exitDy=0;entryX=0.5;entryY=0;entryDx=0;entryDy=0;" edge="1" parent="1" source="JYOds4GW_X546JAjG_i9-25" target="JYOds4GW_X546JAjG_i9-28">
          <mxGeometry width="50" height="50" relative="1" as="geometry">
            <mxPoint x="690" y="80" as="sourcePoint" />
            <mxPoint x="740" y="30" as="targetPoint" />
          </mxGeometry>
        </mxCell>
        <mxCell id="JYOds4GW_X546JAjG_i9-31" value="" style="endArrow=none;html=1;rounded=0;exitX=1;exitY=0;exitDx=0;exitDy=0;entryX=0;entryY=0.5;entryDx=0;entryDy=0;" edge="1" parent="1" source="JYOds4GW_X546JAjG_i9-1" target="JYOds4GW_X546JAjG_i9-25">
          <mxGeometry width="50" height="50" relative="1" as="geometry">
            <mxPoint x="630" y="220" as="sourcePoint" />
            <mxPoint x="680" y="170" as="targetPoint" />
          </mxGeometry>
        </mxCell>
      </root>
    </mxGraphModel>
  </diagram>
</mxfile>
